<svg width="32" height="23" viewBox="0 0 32 23" fill="none" xmlns="http://www.w3.org/2000/svg">
<g clip-path="url(#clip0_1438_2114)">
<mask id="mask0_1438_2114" style="mask-type:alpha" maskUnits="userSpaceOnUse" x="0" y="0" width="32" height="23">
<path d="M28.9524 0H3.04762C1.36447 0 0 1.37299 0 3.06667V19.9333C0 21.627 1.36447 23 3.04762 23H28.9524C30.6355 23 32 21.627 32 19.9333V3.06667C32 1.37299 30.6355 0 28.9524 0Z" fill="white"/>
</mask>
<g mask="url(#mask0_1438_2114)">
<path d="M28.9524 0H3.04762C1.36447 0 0 1.37299 0 3.06667V19.9333C0 21.627 1.36447 23 3.04762 23H28.9524C30.6355 23 32 21.627 32 19.9333V3.06667C32 1.37299 30.6355 0 28.9524 0Z" fill="white"/>
<path fill-rule="evenodd" clip-rule="evenodd" d="M0 15.3333H32V23H0V15.3333ZM0 0H32V7.66667H0V0Z" fill="#F02532"/>
<path d="M28.9524 0.766724H3.04768C1.78531 0.766724 0.761963 1.79647 0.761963 3.06672V19.9334C0.761963 21.2036 1.78531 22.2334 3.04768 22.2334H28.9524C30.2148 22.2334 31.2382 21.2036 31.2382 19.9334V3.06672C31.2382 1.79647 30.2148 0.766724 28.9524 0.766724Z" stroke="black" stroke-opacity="0.1"/>
</g>
</g>
<defs>
<clipPath id="clip0_1438_2114">
<rect width="32" height="23" fill="white"/>
</clipPath>
</defs>
</svg>
