<svg width="32" height="23" viewBox="0 0 32 23" fill="none" xmlns="http://www.w3.org/2000/svg">
<g clip-path="url(#clip0_1438_2116)">
<mask id="mask0_1438_2116" style="mask-type:alpha" maskUnits="userSpaceOnUse" x="0" y="0" width="32" height="23">
<path d="M28.9524 0H3.04762C1.36447 0 0 1.37299 0 3.06667V19.9333C0 21.627 1.36447 23 3.04762 23H28.9524C30.6355 23 32 21.627 32 19.9333V3.06667C32 1.37299 30.6355 0 28.9524 0Z" fill="white"/>
</mask>
<g mask="url(#mask0_1438_2116)">
<path d="M28.9524 0H3.04762C1.36447 0 0 1.37299 0 3.06667V19.9333C0 21.627 1.36447 23 3.04762 23H28.9524C30.6355 23 32 21.627 32 19.9333V3.06667C32 1.37299 30.6355 0 28.9524 0Z" fill="white"/>
<path fill-rule="evenodd" clip-rule="evenodd" d="M7.61902 9.2001C7.61902 9.2001 9.14283 13.8001 13.7143 13.8001C18.2857 13.8001 22.8571 9.2001 22.8571 9.2001H19.8095L24.3809 4.6001L15.2381 7.66676L12.1904 4.6001L10.6666 7.66676L7.61902 9.2001Z" fill="#DA7500"/>
<path fill-rule="evenodd" clip-rule="evenodd" d="M7.61902 13.8L15.2381 16.8667V18.4L6.09521 15.3334L7.61902 13.8ZM24.3809 13.8L16.7619 16.8667V18.4L25.9047 15.3334L24.3809 13.8ZM15.2381 16.8667H16.7619V19.9334H15.2381V16.8667Z" fill="#435121"/>
<path d="M28.9524 0.766602H3.04768C1.78531 0.766602 0.761963 1.79635 0.761963 3.0666V19.9333C0.761963 21.2035 1.78531 22.2333 3.04768 22.2333H28.9524C30.2148 22.2333 31.2382 21.2035 31.2382 19.9333V3.0666C31.2382 1.79635 30.2148 0.766602 28.9524 0.766602Z" stroke="black" stroke-opacity="0.1"/>
</g>
</g>
<defs>
<clipPath id="clip0_1438_2116">
<rect width="32" height="23" fill="white"/>
</clipPath>
</defs>
</svg>
