<svg width="32" height="22" viewBox="0 0 32 22" fill="none" xmlns="http://www.w3.org/2000/svg">
<g clip-path="url(#clip0_1438_2120)">
<mask id="mask0_1438_2120" style="mask-type:alpha" maskUnits="userSpaceOnUse" x="0" y="0" width="32" height="22">
<path d="M28.9524 0H3.04762C1.36447 0 0 1.3133 0 2.93333V19.0667C0 20.6867 1.36447 22 3.04762 22H28.9524C30.6355 22 32 20.6867 32 19.0667V2.93333C32 1.3133 30.6355 0 28.9524 0Z" fill="white"/>
</mask>
<g mask="url(#mask0_1438_2120)">
<path d="M28.9524 0H3.04762C1.36447 0 0 1.3133 0 2.93333V19.0667C0 20.6867 1.36447 22 3.04762 22H28.9524C30.6355 22 32 20.6867 32 19.0667V2.93333C32 1.3133 30.6355 0 28.9524 0Z" fill="#CD0B20"/>
<path fill-rule="evenodd" clip-rule="evenodd" d="M0 5.8667H32V16.1334H0V5.8667Z" fill="#FFCB00"/>
<path fill-rule="evenodd" clip-rule="evenodd" d="M13.7143 9.12568V12.8217C13.7143 13.8484 12.6903 14.6697 11.4285 14.6697H8.38093C7.12226 14.6668 6.09521 13.841 6.09521 12.8188V9.12275C6.09521 8.28382 6.77788 7.58275 7.71655 7.35542C7.99998 6.59275 8.8716 7.27622 9.90474 7.27622C10.944 7.27622 11.8095 6.59715 12.0929 7.35688C13.0285 7.59008 13.7143 8.29262 13.7143 9.12568Z" fill="#C8B47C"/>
<path fill-rule="evenodd" clip-rule="evenodd" d="M13.7143 10.2666H15.2381V14.6666H13.7143V10.2666ZM4.57141 10.2666H6.09522V14.6666H4.57141V10.2666Z" fill="#B5B5B5"/>
<path fill-rule="evenodd" clip-rule="evenodd" d="M13.7143 13.2H15.2381V14.6666H13.7143V13.2ZM4.57141 13.2H6.09522V14.6666H4.57141V13.2Z" fill="#165C96"/>
<path fill-rule="evenodd" clip-rule="evenodd" d="M13.7143 8.80005H15.2381V10.2667H13.7143V8.80005ZM4.57141 8.80005H6.09522V10.2667H4.57141V8.80005Z" fill="#A0790A"/>
<path fill-rule="evenodd" clip-rule="evenodd" d="M7.61902 8.80005H9.14283V11H7.61902V8.80005ZM10.6666 11.7334H12.1904V13.9334H10.6666V11.7334Z" fill="#D20636"/>
<path fill-rule="evenodd" clip-rule="evenodd" d="M10.6666 8.80005H12.1904V11H10.6666V8.80005Z" fill="#A18793"/>
<path fill-rule="evenodd" clip-rule="evenodd" d="M7.61902 11.7334H9.14283V13.9334H7.61902V11.7334Z" fill="#FFE100"/>
<path fill-rule="evenodd" clip-rule="evenodd" d="M9.14283 8.79992L7.61902 7.33325H12.1904L10.6666 8.79992H9.14283Z" fill="#B6161A"/>
<path fill-rule="evenodd" clip-rule="evenodd" d="M9.14282 5.8667H10.6666V7.33337H9.14282V5.8667Z" fill="#AC9300"/>
<path d="M28.9524 0.733398H3.04768C1.78531 0.733398 0.761963 1.71837 0.761963 2.9334V19.0667C0.761963 20.2818 1.78531 21.2667 3.04768 21.2667H28.9524C30.2148 21.2667 31.2382 20.2818 31.2382 19.0667V2.9334C31.2382 1.71837 30.2148 0.733398 28.9524 0.733398Z" stroke="black" stroke-opacity="0.1"/>
</g>
</g>
<defs>
<clipPath id="clip0_1438_2120">
<rect width="32" height="22" fill="white"/>
</clipPath>
</defs>
</svg>
