<svg width="31" height="23" viewBox="0 0 31 23" fill="none" xmlns="http://www.w3.org/2000/svg">
<g clip-path="url(#clip0_1438_2140)">
<mask id="mask0_1438_2140" style="mask-type:alpha" maskUnits="userSpaceOnUse" x="0" y="0" width="31" height="23">
<path d="M28.0476 0H2.95238C1.32183 0 0 1.37299 0 3.06667V19.9333C0 21.627 1.32183 23 2.95238 23H28.0476C29.6782 23 31 21.627 31 19.9333V3.06667C31 1.37299 29.6782 0 28.0476 0Z" fill="white"/>
</mask>
<g mask="url(#mask0_1438_2140)">
<path d="M28.0476 0H2.95238C1.32183 0 0 1.37299 0 3.06667V19.9333C0 21.627 1.32183 23 2.95238 23H28.0476C29.6782 23 31 21.627 31 19.9333V3.06667C31 1.37299 29.6782 0 28.0476 0Z" fill="white"/>
<path fill-rule="evenodd" clip-rule="evenodd" d="M0 0H5.90476V6.13333H0V0ZM8.85714 0H14.7619V6.13333H8.85714V0ZM0 9.2H5.90476V15.3333H0V9.2ZM8.85714 9.2H14.7619V15.3333H8.85714V9.2ZM14.7619 0H31V3.06667H14.7619V0ZM14.7619 6.13333H31V9.2H14.7619V6.13333Z" fill="#005CB2"/>
<path fill-rule="evenodd" clip-rule="evenodd" d="M0 12.2666H31V15.3333H0V12.2666ZM5.90476 12.2666H8.85714V15.3333H5.90476V12.2666ZM0 18.3999H31V21.4666H0V18.3999Z" fill="#005CB2"/>
<path d="M28.0476 0.766602H2.95232C1.72941 0.766602 0.738037 1.79635 0.738037 3.0666V19.9333C0.738037 21.2035 1.72941 22.2333 2.95232 22.2333H28.0476C29.2705 22.2333 30.2618 21.2035 30.2618 19.9333V3.0666C30.2618 1.79635 29.2705 0.766602 28.0476 0.766602Z" stroke="black" stroke-opacity="0.1"/>
</g>
</g>
<defs>
<clipPath id="clip0_1438_2140">
<rect width="31" height="23" fill="white"/>
</clipPath>
</defs>
</svg>
