<svg width="32" height="23" viewBox="0 0 32 23" fill="none" xmlns="http://www.w3.org/2000/svg">
<g clip-path="url(#clip0_1438_2122)">
<mask id="mask0_1438_2122" style="mask-type:alpha" maskUnits="userSpaceOnUse" x="0" y="0" width="32" height="23">
<path d="M28.9524 0H3.04762C1.36447 0 0 1.37299 0 3.06667V19.9333C0 21.627 1.36447 23 3.04762 23H28.9524C30.6355 23 32 21.627 32 19.9333V3.06667C32 1.37299 30.6355 0 28.9524 0Z" fill="white"/>
</mask>
<g mask="url(#mask0_1438_2122)">
<path d="M28.9524 0H3.04762C1.36447 0 0 1.37299 0 3.06667V19.9333C0 21.627 1.36447 23 3.04762 23H28.9524C30.6355 23 32 21.627 32 19.9333V3.06667C32 1.37299 30.6355 0 28.9524 0Z" fill="white"/>
<path fill-rule="evenodd" clip-rule="evenodd" d="M0 15.3333H32V22.9999H0V15.3333Z" fill="#150A99"/>
<path fill-rule="evenodd" clip-rule="evenodd" d="M0 0H32V7.66667H0V0Z" fill="#FF0000"/>
<path fill-rule="evenodd" clip-rule="evenodd" d="M12.1904 6.13343H13.7142V7.66676H12.1904V6.13343ZM15.238 4.6001H16.7619V7.66676H15.238V4.6001ZM18.2857 6.13343H19.8095V7.66676H18.2857V6.13343Z" fill="#0091E0"/>
<path fill-rule="evenodd" clip-rule="evenodd" d="M16.7619 4.6001H18.2857V7.66676H16.7619V4.6001ZM13.7142 4.6001H15.238V7.66676H13.7142V4.6001Z" fill="#150A99"/>
</g>
<mask id="mask1_1438_2122" style="mask-type:alpha" maskUnits="userSpaceOnUse" x="12" y="7" width="8" height="10">
<path d="M19.8095 13.0334C19.8095 15.1494 18.1028 16.8667 16 16.8667C13.8971 16.8667 12.1904 15.1494 12.1904 13.0334V7.66675H19.8095V13.0334Z" fill="white"/>
</mask>
<g mask="url(#mask1_1438_2122)">
<path d="M19.8095 13.0334C19.8095 15.1494 18.1028 16.8667 16 16.8667C13.8971 16.8667 12.1904 15.1494 12.1904 13.0334V7.66675H19.8095V13.0334Z" fill="#FF0000"/>
<path fill-rule="evenodd" clip-rule="evenodd" d="M13.7142 15.3334H15.238V16.8667H13.7142V15.3334ZM16.7619 15.3334H18.2857V16.8667H16.7619V15.3334ZM15.238 13.8001H16.7619V15.3334H15.238V13.8001ZM13.7142 12.2667H15.238V13.8001H13.7142V12.2667ZM16.7619 12.2667H18.2857V13.8001H16.7619V12.2667ZM15.238 10.7334H16.7619V12.2667H15.238V10.7334ZM13.7142 9.20008H15.238V10.7334H13.7142V9.20008ZM16.7619 9.20008H18.2857V10.7334H16.7619V9.20008ZM15.238 7.66675H16.7619V9.20008H15.238V7.66675ZM18.2857 7.66675H19.8095V9.20008H18.2857V7.66675ZM18.2857 10.7334H19.8095V12.2667H18.2857V10.7334ZM18.2857 13.8001H19.8095V15.3334H18.2857V13.8001ZM12.1904 13.8001H13.7142V15.3334H12.1904V13.8001ZM12.1904 10.7334H13.7142V12.2667H12.1904V10.7334ZM12.1904 7.66675H13.7142V9.20008H12.1904V7.66675Z" fill="white"/>
<path d="M28.9524 0.766602H3.04768C1.78531 0.766602 0.761963 1.79635 0.761963 3.0666V19.9333C0.761963 21.2035 1.78531 22.2333 3.04768 22.2333H28.9524C30.2148 22.2333 31.2382 21.2035 31.2382 19.9333V3.0666C31.2382 1.79635 30.2148 0.766602 28.9524 0.766602Z" stroke="black" stroke-opacity="0.1"/>
</g>
</g>
<defs>
<clipPath id="clip0_1438_2122">
<rect width="32" height="23" fill="white"/>
</clipPath>
</defs>
</svg>
