<svg width="10" height="14" viewBox="0 0 10 14" fill="none" xmlns="http://www.w3.org/2000/svg">
<path d="M9.91609 5.71976C9.91609 5.67128 9.89248 5.62281 9.89248 5.57434C9.89248 5.5501 9.89248 5.5501 9.89248 5.52587C9.89248 5.47739 9.86887 5.42892 9.84526 5.38045C9.7036 4.9442 9.39668 4.58065 8.99531 4.38676C8.99531 4.38676 8.9717 4.38676 8.9717 4.36253C8.94809 4.36253 8.92448 4.33829 8.90087 4.33829C8.87726 4.33829 8.85365 4.31405 8.83004 4.31405C8.80643 4.31405 8.78282 4.31405 8.75921 4.28982C8.7356 4.28982 8.68839 4.26558 8.66477 4.26558C8.64117 4.26558 8.61756 4.26558 8.61756 4.26558C8.59395 4.26558 8.54673 4.26558 8.52312 4.24134C8.49951 4.24134 8.45229 4.24134 8.42868 4.24134C8.40507 4.24134 8.38146 4.24134 8.35785 4.24134H8.21619V3.22342C8.21619 2.39939 7.90926 1.62383 7.38985 1.04216C6.79961 0.412016 5.97326 0 5.05248 0C3.56507 0 2.33736 1.04216 1.98322 2.44786C1.91239 2.69022 1.88878 2.95682 1.88878 3.22342V4.24134H1.58185C1.51102 4.24134 1.44019 4.24134 1.39297 4.26558C1.29854 4.26558 1.2041 4.28982 1.13327 4.31405C1.10966 4.31405 1.10966 4.31405 1.08605 4.33829C1.03883 4.36253 0.991609 4.36253 0.967999 4.38676C0.92078 4.411 0.87356 4.43524 0.826341 4.45947C0.779121 4.48371 0.755512 4.50794 0.708292 4.53218C0.708292 4.53218 0.708292 4.53218 0.684682 4.53218C0.566634 4.60489 0.472195 4.72607 0.377756 4.82302L0.354146 4.84725C0.330536 4.87149 0.330536 4.89572 0.306927 4.91996C0.283317 4.9442 0.283317 4.9442 0.259707 4.96843C0.259707 4.99267 0.236097 4.99267 0.236097 5.01691C0.212488 5.04114 0.188878 5.08961 0.188878 5.11385C0.165268 5.16232 0.141658 5.2108 0.118049 5.25927C0.0708292 5.40469 0.0236097 5.5501 0 5.71976C0 5.74399 0 5.76823 0 5.79247C0 5.8167 0 5.86517 0 5.88941V11.391C0 11.391 0 11.391 0 11.4153C0 11.8031 0.141658 12.1424 0.354146 12.4332C0.354146 12.4332 0.354146 12.4332 0.354146 12.4574C0.377756 12.4817 0.401366 12.5301 0.448585 12.5544L0.472195 12.5786C0.495805 12.6029 0.519414 12.6271 0.543024 12.6513C0.543024 12.6513 0.566634 12.6756 0.590244 12.6756C0.613853 12.6998 0.637463 12.724 0.684682 12.7483C0.684682 12.7483 0.708292 12.7483 0.708292 12.7725C0.731902 12.7967 0.779121 12.821 0.802731 12.8452C1.01522 12.9664 1.27493 13.0391 1.53463 13.0391H8.31063C8.64117 13.0391 8.94809 12.9422 9.18419 12.7725C9.23141 12.7483 9.25502 12.724 9.30224 12.6756L9.32585 12.6513C9.34946 12.6271 9.37307 12.6029 9.42029 12.5786L9.4439 12.5544C9.46751 12.5301 9.49112 12.5059 9.51473 12.4574C9.51473 12.4574 9.51473 12.4574 9.53834 12.4332C9.56195 12.409 9.58556 12.3605 9.60917 12.3363C9.75082 12.1181 9.84526 11.8758 9.86887 11.6092C9.86887 11.5849 9.86887 11.5607 9.86887 11.5365C9.86887 11.5122 9.86887 11.4637 9.86887 11.4395V5.86517C9.91609 5.8167 9.91609 5.76823 9.91609 5.71976ZM2.52624 3.24766C2.52624 3.22342 2.52624 3.22342 2.52624 3.24766C2.52624 2.98106 2.57346 2.71446 2.64429 2.4721C2.97483 1.4057 3.91922 0.630143 5.05248 0.630143C5.83161 0.630143 6.5399 0.993687 7.01209 1.57536C7.36624 2.01161 7.60234 2.59328 7.60234 3.22342V4.24134H2.52624V3.24766ZM9.2078 11.391C9.2078 11.8758 8.83004 12.2878 8.33424 12.2878H1.58185C1.08605 12.2878 0.708292 11.8758 0.708292 11.391V5.86517C0.708292 5.38045 1.08605 4.96843 1.58185 4.96843H1.88878H2.59707H7.48429H8.19258H8.33424C8.80643 4.96843 9.2078 5.35621 9.2078 5.86517V11.391Z" fill="#999999"/>
<path d="M4.95801 7.901C4.6983 7.901 4.48581 8.11913 4.4622 8.40996V9.64601C4.4622 9.91261 4.67469 10.155 4.9344 10.155C5.19411 10.155 5.4302 9.93685 5.4302 9.67025V9.64601V8.40996C5.45381 8.11913 5.24133 7.901 4.95801 7.901Z" fill="#999999"/>
</svg>
