<svg width="32" height="23" viewBox="0 0 32 23" fill="none" xmlns="http://www.w3.org/2000/svg">
<g clip-path="url(#clip0_1438_2141)">
<mask id="mask0_1438_2141" style="mask-type:alpha" maskUnits="userSpaceOnUse" x="0" y="0" width="32" height="23">
<path d="M28.9524 0H3.04762C1.36447 0 0 1.37299 0 3.06667V19.9333C0 21.627 1.36447 23 3.04762 23H28.9524C30.6355 23 32 21.627 32 19.9333V3.06667C32 1.37299 30.6355 0 28.9524 0Z" fill="white"/>
</mask>
<g mask="url(#mask0_1438_2141)">
<path d="M28.9524 0H3.04762C1.36447 0 0 1.37299 0 3.06667V19.9333C0 21.627 1.36447 23 3.04762 23H28.9524C30.6355 23 32 21.627 32 19.9333V3.06667C32 1.37299 30.6355 0 28.9524 0Z" fill="#FF0000"/>
<path fill-rule="evenodd" clip-rule="evenodd" d="M0 0H10.6667V23H0V0Z" fill="#006700"/>
<path d="M10.6666 15.3333C13.1914 15.3333 15.2381 13.2738 15.2381 10.7333C15.2381 8.19279 13.1914 6.1333 10.6666 6.1333C8.14191 6.1333 6.09521 8.19279 6.09521 10.7333C6.09521 13.2738 8.14191 15.3333 10.6666 15.3333Z" fill="#FFFF00"/>
<path fill-rule="evenodd" clip-rule="evenodd" d="M13.7143 12.2667V7.66675H7.61902V12.2667C7.61902 13.1131 8.98283 13.8001 10.6666 13.8001C12.3504 13.8001 13.7143 13.1131 13.7143 12.2667Z" fill="#FF0000"/>
<path fill-rule="evenodd" clip-rule="evenodd" d="M9.14282 9.19995H12.1904V12.2666H9.14282V9.19995Z" fill="white"/>
<path fill-rule="evenodd" clip-rule="evenodd" d="M9.14282 9.19995H10.6666V10.7333H9.14282V9.19995ZM10.6666 10.7333H12.1904V12.2666H10.6666V10.7333Z" fill="#002E9C"/>
<path d="M28.9524 0.766602H3.04768C1.78531 0.766602 0.761963 1.79635 0.761963 3.0666V19.9333C0.761963 21.2035 1.78531 22.2333 3.04768 22.2333H28.9524C30.2148 22.2333 31.2382 21.2035 31.2382 19.9333V3.0666C31.2382 1.79635 30.2148 0.766602 28.9524 0.766602Z" stroke="black" stroke-opacity="0.1"/>
</g>
</g>
<defs>
<clipPath id="clip0_1438_2141">
<rect width="32" height="23" fill="white"/>
</clipPath>
</defs>
</svg>
