<svg width="32" height="22" viewBox="0 0 32 22" fill="none" xmlns="http://www.w3.org/2000/svg">
<g clip-path="url(#clip0_1438_2133)">
<mask id="mask0_1438_2133" style="mask-type:alpha" maskUnits="userSpaceOnUse" x="0" y="0" width="32" height="22">
<path d="M28.9524 0H3.04762C1.36447 0 0 1.3133 0 2.93333V19.0667C0 20.6867 1.36447 22 3.04762 22H28.9524C30.6355 22 32 20.6867 32 19.0667V2.93333C32 1.3133 30.6355 0 28.9524 0Z" fill="white"/>
</mask>
<g mask="url(#mask0_1438_2133)">
<path d="M28.9524 0H3.04762C1.36447 0 0 1.3133 0 2.93333V19.0667C0 20.6867 1.36447 22 3.04762 22H28.9524C30.6355 22 32 20.6867 32 19.0667V2.93333C32 1.3133 30.6355 0 28.9524 0Z" fill="#0A4981"/>
<path fill-rule="evenodd" clip-rule="evenodd" d="M0 14.6667H32V22.0001H0V14.6667Z" fill="white"/>
<path fill-rule="evenodd" clip-rule="evenodd" d="M0 0H32V7.33333H0V0ZM12.1905 14.6667V7.33333H6.09524V14.6667C6.09524 16.2873 7.45905 17.6 9.14286 17.6C10.8267 17.6 12.1905 16.2873 12.1905 14.6667Z" fill="#CD3E44"/>
<path fill-rule="evenodd" clip-rule="evenodd" d="M7.61902 7.33324L6.09521 5.86657C6.09521 5.86657 7.61902 4.3999 9.14283 4.3999C10.6666 4.3999 12.1905 5.86657 12.1905 5.86657L10.6666 7.33324H7.61902Z" fill="#ECBE34"/>
<path fill-rule="evenodd" clip-rule="evenodd" d="M7.61902 8.80005L6.09521 10.2667L9.14283 11.7334L7.61902 14.6667L9.14283 17.6L10.6666 14.6667L9.14283 11.7334L12.1905 10.2667L10.6666 8.80005L9.14283 10.2667L7.61902 8.80005Z" fill="white"/>
<path fill-rule="evenodd" clip-rule="evenodd" d="M7.61902 8.80005H6.09521V10.2667L7.61902 8.80005ZM10.6666 8.80005H12.1905V10.2667L10.6666 8.80005Z" fill="#ECBE34"/>
<path fill-rule="evenodd" clip-rule="evenodd" d="M9.14283 4.3999L7.61902 5.86657L9.14283 7.33324L10.6666 5.86657L9.14283 4.3999Z" fill="#A75835"/>
<path fill-rule="evenodd" clip-rule="evenodd" d="M9.14283 11.7334L6.09521 13.2001H12.1905L9.14283 11.7334Z" fill="#88605F"/>
<path d="M28.9524 0.733398H3.04768C1.78531 0.733398 0.761963 1.71837 0.761963 2.9334V19.0667C0.761963 20.2818 1.78531 21.2667 3.04768 21.2667H28.9524C30.2148 21.2667 31.2382 20.2818 31.2382 19.0667V2.9334C31.2382 1.71837 30.2148 0.733398 28.9524 0.733398Z" stroke="black" stroke-opacity="0.1"/>
</g>
</g>
<defs>
<clipPath id="clip0_1438_2133">
<rect width="32" height="22" fill="white"/>
</clipPath>
</defs>
</svg>
