<svg width="32" height="22" viewBox="0 0 32 22" fill="none" xmlns="http://www.w3.org/2000/svg">
<g clip-path="url(#clip0_1438_2134)">
<mask id="mask0_1438_2134" style="mask-type:alpha" maskUnits="userSpaceOnUse" x="0" y="0" width="32" height="22">
<path d="M28.9524 0H3.04762C1.36447 0 0 1.3133 0 2.93333V19.0667C0 20.6867 1.36447 22 3.04762 22H28.9524C30.6355 22 32 20.6867 32 19.0667V2.93333C32 1.3133 30.6355 0 28.9524 0Z" fill="white"/>
</mask>
<g mask="url(#mask0_1438_2134)">
<path d="M28.9524 0H3.04762C1.36447 0 0 1.3133 0 2.93333V19.0667C0 20.6867 1.36447 22 3.04762 22H28.9524C30.6355 22 32 20.6867 32 19.0667V2.93333C32 1.3133 30.6355 0 28.9524 0Z" fill="#0275B0"/>
<path fill-rule="evenodd" clip-rule="evenodd" d="M9.14286 13.2H0V8.8H9.14286V0H13.7143V8.8H32V13.2H13.7143V22H9.14286V13.2Z" fill="#FED200"/>
<path d="M28.9524 0.733398H3.04768C1.78531 0.733398 0.761963 1.71837 0.761963 2.9334V19.0667C0.761963 20.2818 1.78531 21.2667 3.04768 21.2667H28.9524C30.2148 21.2667 31.2382 20.2818 31.2382 19.0667V2.9334C31.2382 1.71837 30.2148 0.733398 28.9524 0.733398Z" stroke="black" stroke-opacity="0.1"/>
</g>
</g>
<defs>
<clipPath id="clip0_1438_2134">
<rect width="32" height="22" fill="white"/>
</clipPath>
</defs>
</svg>
