<svg width="21" height="21" viewBox="0 0 21 21" fill="none" xmlns="http://www.w3.org/2000/svg">
<path fill-rule="evenodd" clip-rule="evenodd" d="M9.22508 1.67729C5.05655 1.67729 1.67729 5.05655 1.67729 9.22508C1.67729 13.3936 5.05655 16.7729 9.22508 16.7729C13.3936 16.7729 16.7729 13.3936 16.7729 9.22508C16.7729 5.05655 13.3936 1.67729 9.22508 1.67729ZM0 9.22508C0 4.13021 4.13021 0 9.22508 0C14.3199 0 18.4502 4.13021 18.4502 9.22508C18.4502 11.4705 17.6479 13.5286 16.3144 15.1283L21 19.814L19.814 21L15.1283 16.3144C13.5286 17.6479 11.4705 18.4502 9.22508 18.4502C4.13021 18.4502 0 14.3199 0 9.22508Z" fill="#222222"/>
</svg>
