<svg width="32" height="23" viewBox="0 0 32 23" fill="none" xmlns="http://www.w3.org/2000/svg">
<g clip-path="url(#clip0_1438_2135)">
<mask id="mask0_1438_2135" style="mask-type:alpha" maskUnits="userSpaceOnUse" x="0" y="0" width="32" height="23">
<path d="M28.9524 0H3.04762C1.36447 0 0 1.37299 0 3.06667V19.9333C0 21.627 1.36447 23 3.04762 23H28.9524C30.6355 23 32 21.627 32 19.9333V3.06667C32 1.37299 30.6355 0 28.9524 0Z" fill="white"/>
</mask>
<g mask="url(#mask0_1438_2135)">
<path d="M28.9524 0H3.04762C1.36447 0 0 1.37299 0 3.06667V19.9333C0 21.627 1.36447 23 3.04762 23H28.9524C30.6355 23 32 21.627 32 19.9333V3.06667C32 1.37299 30.6355 0 28.9524 0Z" fill="#0268AE"/>
<path fill-rule="evenodd" clip-rule="evenodd" d="M0 15.3333H32V22.9999H0V15.3333Z" fill="#EF1F28"/>
<path fill-rule="evenodd" clip-rule="evenodd" d="M0 0H32V7.66667H0V0Z" fill="white"/>
<path d="M9.9048 4.6001H6.85718C6.01561 4.6001 5.33337 5.28659 5.33337 6.13343V9.96676C5.33337 10.8136 6.01561 11.5001 6.85718 11.5001H9.9048C10.7464 11.5001 11.4286 10.8136 11.4286 9.96676V6.13343C11.4286 5.28659 10.7464 4.6001 9.9048 4.6001Z" fill="#EF1F28"/>
<path d="M9.14283 4.6001H7.61902C6.77745 4.6001 6.09521 5.28659 6.09521 6.13343V9.2001C6.09521 10.0469 6.77745 10.7334 7.61902 10.7334H9.14283C9.98441 10.7334 10.6666 10.0469 10.6666 9.2001V6.13343C10.6666 5.28659 9.98441 4.6001 9.14283 4.6001Z" fill="#0268AE"/>
<path fill-rule="evenodd" clip-rule="evenodd" d="M7.61902 6.1333H9.14283V7.66663H7.61902V6.1333Z" fill="#FFE200"/>
<path fill-rule="evenodd" clip-rule="evenodd" d="M6.09521 9.20002L8.38093 8.43335L10.6666 9.20002L9.14283 10.7333H7.61902L6.09521 9.20002Z" fill="white"/>
<path d="M28.9524 0.766602H3.04768C1.78531 0.766602 0.761963 1.79635 0.761963 3.0666V19.9333C0.761963 21.2035 1.78531 22.2333 3.04768 22.2333H28.9524C30.2148 22.2333 31.2382 21.2035 31.2382 19.9333V3.0666C31.2382 1.79635 30.2148 0.766602 28.9524 0.766602Z" stroke="black" stroke-opacity="0.1"/>
</g>
</g>
<defs>
<clipPath id="clip0_1438_2135">
<rect width="32" height="23" fill="white"/>
</clipPath>
</defs>
</svg>
